<?xml version="1.0" standalone="no"?>
<!DOCTYPE svg PUBLIC "-//W3C//DTD SVG 20010904//EN"
 "http://www.w3.org/TR/2001/REC-SVG-20010904/DTD/svg10.dtd">
<svg version="1.0" xmlns="http://www.w3.org/2000/svg"
 width="2493.000000pt" height="1015.000000pt" viewBox="0 0 2493.000000 1015.000000"
 preserveAspectRatio="xMidYMid meet">
<metadata>
Created by potrace 1.15, written by Peter Selinger 2001-2017
</metadata>
<g transform="translate(0.000000,1015.000000) scale(0.100000,-0.100000)"
fill="#000000" stroke="none">
<path d="M7070 10133 c-29 -11 -66 -38 -106 -77 -97 -98 -94 -75 -94 -658 l0
-498 -908 0 c-1047 0 -967 7 -1068 -94 -104 -105 -94 169 -94 -2498 l0 -2338
-195 2 -196 3 -35 104 c-115 344 -331 627 -629 824 -161 106 -329 178 -530
225 -102 25 -127 27 -340 27 -213 0 -238 -2 -340 -27 -270 -64 -499 -180 -700
-354 -142 -124 -287 -310 -370 -474 -49 -99 -104 -252 -133 -375 -25 -102 -27
-127 -27 -340 0 -213 2 -238 27 -340 64 -270 180 -499 354 -700 124 -142 310
-287 474 -370 99 -49 252 -104 375 -133 102 -25 127 -27 340 -27 213 0 238 2
340 27 205 49 373 121 539 231 l96 65 0 -1037 c0 -1193 -8 -1095 94 -1197 101
-100 39 -94 936 -94 897 0 835 -6 936 94 99 100 94 54 94 823 l0 663 1651 0
1651 0 -5 -32 c-3 -18 -25 -291 -49 -605 l-43 -573 -237 0 c-143 0 -248 -4
-265 -11 -38 -14 -83 -57 -99 -96 -18 -42 -19 -234 -2 -251 17 -17 2949 -17
2966 0 17 17 16 209 -2 251 -16 39 -61 82 -99 96 -17 7 -122 11 -265 11 l-237
0 -43 573 c-24 314 -46 587 -49 605 l-5 32 731 0 731 0 0 -453 c0 -504 1 -509
66 -586 l36 -41 -294 0 c-215 0 -297 -3 -306 -12 -8 -8 -12 -57 -12 -157 0
-120 4 -153 19 -186 23 -52 74 -103 126 -126 39 -18 190 -19 4105 -19 3915 0
4066 1 4105 19 52 23 103 74 126 126 15 33 19 66 19 186 0 100 -4 149 -12 157
-9 9 -91 12 -306 12 l-294 0 36 41 c68 81 66 47 66 916 l0 783 743 0 c860 0
803 -6 903 94 104 105 94 -141 94 2286 0 2427 10 2181 -94 2286 -105 104 194
94 -2686 94 -2880 0 -2581 10 -2686 -94 -99 -99 -94 -57 -94 -798 l0 -638
-360 0 -360 0 0 1583 c0 1811 9 1639 -94 1743 -104 103 81 94 -1838 94 l-1678
0 0 498 c0 583 3 560 -94 658 -105 104 138 94 -2260 93 -1890 0 -2106 -2
-2146 -16z m4306 -98 c30 -19 60 -49 79 -79 30 -49 30 -50 33 -218 l3 -168
-2270 0 -2271 0 0 155 c0 166 7 197 55 261 13 18 48 44 77 58 l52 26 2096 -2
2097 -3 49 -30z m112 -2738 l-3 -2194 -30 -49 c-19 -30 -49 -60 -79 -79 l-49
-30 -2107 0 -2107 0 -49 30 c-30 19 -60 49 -79 79 l-30 49 -3 2194 -2 2193
2270 0 2270 0 -2 -2193z m-4618 1253 l0 -269 -662 -3 c-643 -3 -664 -4 -696
-23 -18 -11 -43 -36 -55 -55 l-22 -35 -3 -2097 -2 -2098 -275 0 -275 0 0 2330
c0 2070 2 2335 15 2367 25 60 61 99 117 127 l52 26 903 0 903 0 0 -270z m8116
235 c30 -19 60 -49 79 -79 l30 -49 3 -1589 2 -1588 -280 0 -280 0 -2 1343 -3
1342 -22 35 c-12 19 -37 44 -55 55 -33 20 -53 20 -1460 23 l-1428 2 0 270 0
270 1683 -2 1684 -3 49 -30z m-8114 -2132 l3 -1548 28 -56 c32 -66 99 -132
165 -162 l47 -22 2105 0 2105 0 56 28 c66 32 132 99 162 165 l22 47 3 1548 2
1547 1421 0 1420 0 24 -25 25 -24 0 -1335 0 -1335 -987 -3 -988 -3 -56 -28
c-66 -32 -132 -99 -162 -165 l-22 -47 -3 -1082 -3 -1083 -3164 0 -3164 0 -3
328 c-3 370 -4 375 -88 466 -60 64 -127 95 -228 103 l-82 6 0 2089 0 2089 25
24 24 25 655 0 656 0 2 -1547z m14394 242 c30 -19 60 -49 79 -79 30 -49 30
-50 33 -218 l3 -168 -2700 0 -2701 0 0 155 c0 166 7 197 55 261 13 18 48 44
77 58 l52 26 2526 -2 2527 -3 49 -30z m112 -2473 l-3 -1929 -30 -49 c-19 -30
-49 -60 -79 -79 l-49 -30 -2537 0 -2537 0 -49 30 c-30 19 -60 49 -79 79 l-30
49 -3 1929 -2 1928 2700 0 2700 0 -2 -1928z m-5478 783 l0 -195 -1636 0 -1636
0 -29 -29 -29 -30 2 -2005 3 -2005 23 -23 23 -23 3327 -3 c1830 -1 3342 0
3360 3 18 3 42 15 53 26 18 18 19 39 19 674 l0 655 130 0 130 0 -2 -788 -3
-789 -30 -49 c-19 -30 -49 -60 -79 -79 l-49 -30 -3497 0 -3497 0 -49 30 c-30
19 -60 49 -79 79 l-30 49 -3 2261 c-2 1537 0 2272 7 2297 17 59 64 114 122
143 l53 26 1698 0 1698 0 0 -195z m-12700 -158 c131 -31 230 -67 344 -124 109
-55 148 -79 251 -159 277 -213 467 -518 547 -875 20 -90 23 -131 23 -304 0
-173 -3 -214 -23 -304 -65 -290 -190 -525 -391 -735 -162 -167 -362 -296 -582
-374 -175 -62 -273 -77 -494 -77 -173 0 -214 3 -304 23 -305 69 -564 212 -772
428 -201 210 -326 445 -391 735 -20 90 -23 131 -23 304 0 173 3 214 23 304 51
225 138 418 271 596 94 126 260 279 397 367 132 85 328 163 490 197 143 30
142 30 344 26 155 -3 202 -7 290 -28z m12702 -1334 l3 -1218 22 -47 c30 -66
96 -133 162 -165 l56 -28 1583 -3 1582 -2 0 -640 0 -640 -3330 0 -3330 0 0
1980 0 1980 1625 0 1625 0 2 -1217z m-10186 142 c30 -19 60 -49 79 -79 27 -44
30 -59 33 -143 l4 -93 -691 0 -691 0 0 54 c0 30 -3 61 -6 70 -6 14 37 16 439
16 392 0 447 2 461 16 9 8 16 19 16 24 0 5 -7 16 -16 24 -14 14 -69 16 -459
16 -414 0 -444 1 -448 18 -3 9 -8 38 -12 65 l-6 47 624 -2 624 -3 49 -30z
m114 -1795 l0 -1400 -950 0 -950 0 0 878 0 878 41 39 c242 235 416 580 461
916 l12 89 693 0 693 0 0 -1400z m6410 270 l0 -660 -3165 0 -3165 0 0 660 0
660 3165 0 3165 0 0 -660z m-1540 -744 c0 -2 20 -266 45 -586 25 -320 45 -590
45 -601 0 -19 -18 -19 -795 -19 -777 0 -795 0 -795 19 0 11 20 281 45 601 25
320 45 584 45 586 0 2 317 4 705 4 388 0 705 -2 705 -4z m-4872 -1164 c-3
-168 -3 -169 -33 -218 -19 -30 -49 -60 -79 -79 l-49 -30 -787 0 -787 0 -49 30
c-30 19 -60 49 -79 79 -30 49 -30 50 -33 218 l-3 168 951 0 951 0 -3 -168z
m9592 -44 c20 -28 57 -66 84 -85 89 -61 115 -64 493 -61 325 3 340 4 386 25
57 27 140 103 157 143 l12 30 1799 0 1799 0 0 -107 c0 -127 -19 -172 -85 -210
l-40 -23 -4043 0 c-4008 0 -4043 0 -4082 20 -70 36 -85 68 -88 203 l-4 117
1789 0 1789 0 34 -52z m1038 30 c-24 -38 -105 -86 -163 -98 -36 -7 -158 -10
-357 -8 -296 3 -304 4 -348 27 -46 23 -110 78 -110 93 0 4 223 8 496 8 l496 0
-14 -22z m-5099 -122 c37 -20 51 -55 51 -131 l0 -65 -1415 0 -1415 0 0 68 c1
73 14 108 51 128 37 21 2688 20 2728 0z"/>
<path d="M7299 9895 c-14 -8 -32 -28 -39 -45 -17 -42 5 -91 49 -110 67 -28
139 43 111 110 -12 30 -55 60 -82 60 -7 -1 -25 -7 -39 -15z"/>
<path d="M7599 9895 c-14 -8 -32 -28 -39 -45 -17 -42 5 -91 49 -110 67 -28
139 43 111 110 -12 30 -55 60 -82 60 -7 -1 -25 -7 -39 -15z"/>
<path d="M7899 9895 c-14 -8 -32 -28 -39 -45 -17 -42 5 -91 49 -110 67 -28
139 43 111 110 -12 30 -55 60 -82 60 -7 -1 -25 -7 -39 -15z"/>
<path d="M7786 8674 c-9 -8 -16 -19 -16 -24 0 -5 7 -16 16 -24 23 -23 295 -23
318 0 9 8 16 19 16 24 0 5 -7 16 -16 24 -23 23 -295 23 -318 0z"/>
<path d="M8236 8674 c-9 -8 -16 -19 -16 -24 0 -5 7 -16 16 -24 23 -23 295 -23
318 0 9 8 16 19 16 24 0 5 -7 16 -16 24 -23 23 -295 23 -318 0z"/>
<path d="M8686 8674 c-9 -8 -16 -19 -16 -24 0 -5 7 -16 16 -24 13 -14 52 -16
274 -16 222 0 261 2 274 16 9 8 16 19 16 24 0 5 -7 16 -16 24 -13 14 -52 16
-274 16 -222 0 -261 -2 -274 -16z"/>
<path d="M9366 8674 c-9 -8 -16 -19 -16 -24 0 -5 7 -16 16 -24 13 -14 63 -16
394 -16 331 0 381 2 394 16 9 8 16 19 16 24 0 5 -7 16 -16 24 -13 14 -63 16
-394 16 -331 0 -381 -2 -394 -16z"/>
<path d="M7786 8274 c-9 -8 -16 -19 -16 -24 0 -5 7 -16 16 -24 13 -14 58 -16
334 -16 276 0 321 2 334 16 9 8 16 19 16 24 0 5 -7 16 -16 24 -13 14 -58 16
-334 16 -276 0 -321 -2 -334 -16z"/>
<path d="M8586 8274 c-9 -8 -16 -19 -16 -24 0 -5 7 -16 16 -24 14 -14 80 -16
584 -16 504 0 570 2 584 16 9 8 16 19 16 24 0 5 -7 16 -16 24 -14 14 -80 16
-584 16 -504 0 -570 -2 -584 -16z"/>
<path d="M9886 8274 c-9 -8 -16 -19 -16 -24 0 -5 7 -16 16 -24 13 -14 49 -16
234 -16 185 0 221 2 234 16 9 8 16 19 16 24 0 5 -7 16 -16 24 -13 14 -49 16
-234 16 -185 0 -221 -2 -234 -16z"/>
<path d="M7786 7874 c-9 -8 -16 -19 -16 -24 0 -5 7 -16 16 -24 13 -14 49 -16
234 -16 185 0 221 2 234 16 9 8 16 19 16 24 0 5 -7 16 -16 24 -13 14 -49 16
-234 16 -185 0 -221 -2 -234 -16z"/>
<path d="M8386 7874 c-9 -8 -16 -19 -16 -24 0 -5 7 -16 16 -24 13 -14 49 -16
234 -16 185 0 221 2 234 16 9 8 16 19 16 24 0 5 -7 16 -16 24 -13 14 -49 16
-234 16 -185 0 -221 -2 -234 -16z"/>
<path d="M8986 7874 c-9 -8 -16 -19 -16 -24 0 -5 7 -16 16 -24 23 -23 245 -23
268 0 9 8 16 19 16 24 0 5 -7 16 -16 24 -23 23 -245 23 -268 0z"/>
<path d="M7786 7474 c-9 -8 -16 -19 -16 -24 0 -5 7 -16 16 -24 14 -14 71 -16
484 -16 413 0 470 2 484 16 9 8 16 19 16 24 0 5 -7 16 -16 24 -14 14 -71 16
-484 16 -413 0 -470 -2 -484 -16z"/>
<path d="M8886 7474 c-9 -8 -16 -19 -16 -24 0 -5 7 -16 16 -24 13 -14 58 -16
334 -16 276 0 321 2 334 16 9 8 16 19 16 24 0 5 -7 16 -16 24 -13 14 -58 16
-334 16 -276 0 -321 -2 -334 -16z"/>
<path d="M7786 7074 c-9 -8 -16 -19 -16 -24 0 -5 7 -16 16 -24 14 -14 71 -16
484 -16 413 0 470 2 484 16 9 8 16 19 16 24 0 5 -7 16 -16 24 -14 14 -71 16
-484 16 -413 0 -470 -2 -484 -16z"/>
<path d="M8886 7074 c-9 -8 -16 -19 -16 -24 0 -5 7 -16 16 -24 14 -14 85 -16
634 -16 549 0 620 2 634 16 9 8 16 19 16 24 0 5 -7 16 -16 24 -14 14 -85 16
-634 16 -549 0 -620 -2 -634 -16z"/>
<path d="M7786 6674 c-9 -8 -16 -19 -16 -24 0 -5 7 -16 16 -24 13 -14 58 -16
334 -16 276 0 321 2 334 16 9 8 16 19 16 24 0 5 -7 16 -16 24 -13 14 -58 16
-334 16 -276 0 -321 -2 -334 -16z"/>
<path d="M8586 6674 c-9 -8 -16 -19 -16 -24 0 -5 7 -16 16 -24 13 -14 58 -16
334 -16 276 0 321 2 334 16 9 8 16 19 16 24 0 5 -7 16 -16 24 -13 14 -58 16
-334 16 -276 0 -321 -2 -334 -16z"/>
<path d="M9386 6674 c-9 -8 -16 -19 -16 -24 0 -5 7 -16 16 -24 13 -13 44 -16
184 -16 140 0 171 3 184 16 9 8 16 19 16 24 0 5 -7 16 -16 24 -13 13 -44 16
-184 16 -140 0 -171 -3 -184 -16z"/>
<path d="M7786 6274 c-9 -8 -16 -19 -16 -24 0 -5 7 -16 16 -24 14 -14 85 -16
634 -16 549 0 620 2 634 16 9 8 16 19 16 24 0 5 -7 16 -16 24 -14 14 -85 16
-634 16 -549 0 -620 -2 -634 -16z"/>
<path d="M7786 5874 c-9 -8 -16 -19 -16 -24 0 -5 7 -16 16 -24 13 -14 53 -16
284 -16 231 0 271 2 284 16 9 8 16 19 16 24 0 5 -7 16 -16 24 -13 14 -53 16
-284 16 -231 0 -271 -2 -284 -16z"/>
<path d="M16329 6755 c-14 -8 -32 -28 -39 -45 -17 -42 5 -91 49 -110 67 -28
139 43 111 110 -12 30 -55 60 -82 60 -7 -1 -25 -7 -39 -15z"/>
<path d="M16629 6755 c-14 -8 -32 -28 -39 -45 -17 -42 5 -91 49 -110 67 -28
139 43 111 110 -12 30 -55 60 -82 60 -7 -1 -25 -7 -39 -15z"/>
<path d="M16929 6755 c-14 -8 -32 -28 -39 -45 -17 -42 5 -91 49 -110 67 -28
139 43 111 110 -12 30 -55 60 -82 60 -7 -1 -25 -7 -39 -15z"/>
<path d="M16950 5612 c-65 -32 -70 -56 -70 -332 0 -364 -14 -350 350 -350 364
0 350 -14 350 350 0 364 14 350 -350 350 -213 0 -250 -2 -280 -18z m538 -74
c17 -17 17 -499 0 -516 -17 -17 -499 -17 -516 0 -9 9 -12 80 -12 258 0 178 3
249 12 258 9 9 80 12 258 12 178 0 249 -3 258 -12z"/>
<path d="M19187 5534 c-4 -4 -7 -33 -7 -64 l0 -57 -62 -13 c-388 -76 -720
-403 -804 -792 l-17 -77 -61 -3 -61 -3 0 -155 0 -155 62 -3 c59 -3 63 -5 69
-30 50 -231 178 -449 347 -593 128 -108 290 -190 448 -225 l68 -16 3 -61 3
-62 155 0 155 0 3 62 3 61 68 16 c289 65 544 259 688 522 l43 79 0 -221 0
-220 -30 -22 c-41 -31 -57 -87 -37 -134 41 -97 173 -97 214 0 20 47 4 103 -37
134 l-30 22 0 342 0 343 53 3 52 3 0 155 0 155 -52 3 -53 3 0 333 0 332 30 22
c41 31 57 87 37 134 -41 97 -173 97 -214 0 -20 -47 -4 -103 37 -134 l30 -22 0
-200 0 -201 -41 75 c-150 275 -408 467 -721 534 -25 6 -27 10 -30 69 l-3 62
-151 3 c-82 1 -153 -1 -157 -4z m233 -154 l0 -80 -80 0 -80 0 0 80 0 80 80 0
80 0 0 -80z m-238 -107 l3 -48 155 0 155 0 3 48 c2 33 7 47 17 47 37 0 208
-64 278 -104 161 -92 281 -212 373 -373 45 -78 104 -242 104 -288 0 -22 -4
-24 -52 -27 l-53 -3 0 -155 0 -155 53 -3 c37 -2 52 -7 52 -17 0 -8 -13 -56
-30 -107 -93 -290 -328 -525 -618 -618 -127 -41 -130 -41 -134 18 l-3 47 -155
0 -155 0 -3 -47 c-4 -59 -7 -59 -134 -18 -290 93 -525 328 -618 618 -17 51
-30 99 -30 107 0 10 14 15 48 17 l47 3 0 155 0 155 -47 3 c-43 3 -48 5 -48 27
0 46 59 210 104 288 91 160 218 286 374 374 74 42 242 103 284 103 25 0 27 -3
30 -47z m-772 -903 l0 -80 -80 0 -80 0 0 80 0 80 80 0 80 0 0 -80z m1990 0 l0
-80 -80 0 -80 0 0 80 0 80 80 0 80 0 0 -80z m-990 -990 l0 -80 -80 0 -80 0 0
80 0 80 80 0 80 0 0 -80z"/>
<path d="M16950 4712 c-65 -32 -70 -56 -70 -332 0 -364 -14 -350 350 -350 364
0 350 -14 350 350 0 364 14 350 -350 350 -213 0 -250 -2 -280 -18z m538 -74
c17 -17 17 -499 0 -516 -17 -17 -499 -17 -516 0 -9 9 -12 80 -12 258 0 178 3
249 12 258 17 17 499 17 516 0z"/>
<path d="M16950 3812 c-65 -32 -70 -56 -70 -332 0 -364 -14 -350 350 -350 364
0 350 -14 350 350 0 364 14 350 -350 350 -213 0 -250 -2 -280 -18z m538 -74
c17 -17 17 -499 0 -516 -17 -17 -499 -17 -516 0 -9 9 -12 80 -12 258 0 178 3
249 12 258 17 17 499 17 516 0z"/>
<path d="M3043 4208 c-6 -7 -101 -286 -212 -620 -135 -404 -200 -614 -196
-628 5 -17 14 -20 38 -18 l32 3 202 600 c133 395 201 612 200 635 -2 30 -6 35
-28 38 -14 2 -30 -3 -36 -10z"/>
<path d="M2228 3810 c-124 -110 -229 -207 -232 -216 -3 -9 -3 -22 1 -29 9 -15
416 -379 450 -402 17 -11 26 -12 42 -3 47 25 29 49 -185 239 -198 176 -205
184 -188 201 11 9 101 90 202 180 101 89 186 169 189 178 8 20 -10 46 -34 50
-13 2 -89 -59 -245 -198z"/>
<path d="M3250 3995 c-6 -8 -10 -22 -8 -32 3 -15 137 -140 352 -329 l58 -51
-206 -184 c-213 -190 -232 -215 -185 -239 16 -9 25 -8 42 3 32 21 441 387 450
402 4 7 4 20 1 29 -10 25 -455 416 -474 416 -10 0 -23 -7 -30 -15z"/>
<path d="M4816 2314 c-9 -8 -16 -19 -16 -24 0 -5 7 -16 16 -24 13 -14 58 -16
334 -16 276 0 321 2 334 16 9 8 16 19 16 24 0 5 -7 16 -16 24 -13 14 -58 16
-334 16 -276 0 -321 -2 -334 -16z"/>
<path d="M4396 2248 c-54 -15 -110 -74 -125 -131 -45 -182 177 -309 309 -177
135 135 2 358 -184 308z m130 -102 c28 -28 34 -42 34 -76 0 -34 -6 -48 -34
-76 -28 -28 -42 -34 -76 -34 -34 0 -48 6 -76 34 -28 28 -34 42 -34 76 0 34 6
48 34 76 28 28 42 34 76 34 34 0 48 -6 76 -34z"/>
<path d="M4816 2094 c-9 -8 -16 -19 -16 -24 0 -5 7 -16 16 -24 23 -24 445 -24
468 0 9 8 16 19 16 24 0 5 -7 16 -16 24 -23 24 -445 24 -468 0z"/>
<path d="M4816 1874 c-9 -8 -16 -19 -16 -24 0 -5 7 -16 16 -24 23 -23 245 -23
268 0 9 8 16 19 16 24 0 5 -7 16 -16 24 -23 23 -245 23 -268 0z"/>
<path d="M9938 2486 c-135 -36 -200 -183 -138 -311 70 -145 294 -159 378 -23
107 173 -46 386 -240 334z m130 -86 c18 -11 41 -34 52 -52 40 -66 16 -156 -52
-198 -66 -40 -156 -16 -198 52 -75 124 74 273 198 198z"/>
<path d="M4855 453 c-31 -8 -72 -52 -79 -84 -7 -38 14 -91 45 -113 13 -9 43
-16 67 -16 62 0 102 40 102 102 0 52 -21 85 -66 104 -35 15 -36 15 -69 7z"/>
<path d="M23395 2137 c-42 -20 -90 -62 -115 -102 l-22 -35 -344 0 c-332 0
-345 -1 -364 -20 -20 -20 -20 -30 -18 -924 l3 -904 30 -43 c17 -24 50 -57 74
-74 l43 -30 778 0 778 0 44 30 c23 17 56 51 72 75 27 40 31 54 36 149 l5 105
50 11 c181 40 347 179 430 360 42 89 55 154 55 265 0 111 -13 176 -55 265 -83
181 -249 320 -430 360 l-50 11 -3 159 c-2 147 -4 161 -24 182 l-21 23 -312 0
-311 0 -32 44 c-17 25 -50 58 -73 73 -36 24 -55 28 -118 31 -48 1 -87 -3 -106
-11z m245 -447 l0 -230 -77 0 c-94 0 -140 -19 -165 -70 -16 -31 -18 -67 -18
-290 0 -369 -7 -360 300 -360 307 0 300 -9 300 360 0 223 -2 259 -18 290 -25
51 -70 70 -169 70 l-83 0 0 230 0 230 300 0 300 0 0 -864 0 -863 -23 -34 c-12
-18 -38 -44 -56 -56 l-34 -23 -737 0 -737 0 -34 23 c-18 12 -44 38 -56 56
l-23 34 0 863 0 864 515 0 515 0 0 -230z m842 -163 c221 -80 368 -291 368
-527 0 -236 -147 -447 -368 -527 -95 -35 -92 -37 -92 65 l0 89 39 13 c21 7 61
29 87 49 212 160 212 462 0 622 -26 20 -66 42 -87 49 l-39 13 0 89 c0 102 -3
100 92 65z m-594 -159 c9 -9 12 -82 12 -268 0 -186 -3 -259 -12 -268 -17 -17
-399 -17 -416 0 -9 9 -12 82 -12 268 0 186 3 259 12 268 17 17 399 17 416 0z
m558 -97 c130 -79 187 -242 134 -384 -27 -73 -131 -177 -177 -177 -10 0 -13
65 -13 290 0 225 3 290 13 290 6 0 26 -9 43 -19z"/>
<path d="M470 1254 c-217 -57 -400 -241 -455 -459 -19 -76 -19 -234 0 -310 56
-220 240 -404 460 -460 51 -13 229 -15 1338 -15 l1279 0 29 29 c28 28 29 33
29 120 0 86 -1 92 -31 125 -24 28 -40 36 -77 41 -94 12 -182 35 -230 59 -202
102 -202 410 0 512 48 24 136 47 230 59 37 5 53 13 77 41 30 33 31 39 31 125
0 87 -1 92 -29 120 l-29 29 -1284 -1 c-1085 0 -1291 -3 -1338 -15z m2598 -136
l-3 -73 -1265 -5 c-1413 -6 -1295 1 -1408 -77 -107 -73 -165 -186 -165 -323 0
-137 58 -250 165 -323 113 -78 -5 -71 1408 -77 l1265 -5 3 -73 3 -72 -1283 2
-1283 3 -70 28 c-146 57 -269 183 -322 327 -25 66 -28 89 -28 190 0 101 3 124
28 190 49 133 165 259 287 312 111 48 67 47 1408 47 l1263 1 -3 -72z m-357
-189 c-24 -16 -55 -50 -69 -74 l-27 -44 -1022 -1 c-915 0 -1023 -2 -1037 -16
-9 -8 -16 -19 -16 -24 0 -5 7 -16 16 -24 14 -14 120 -16 1022 -16 l1007 0 -3
-85 -3 -85 -1004 0 c-899 0 -1005 -2 -1019 -16 -20 -19 -20 -29 0 -48 14 -14
121 -16 1033 -16 l1018 0 31 -49 c17 -27 50 -64 73 -81 l42 -30 -1114 2 -1114
3 -43 23 c-63 33 -114 84 -148 144 -26 48 -29 62 -29 148 0 79 4 102 23 137
44 83 108 140 191 169 29 10 263 13 1135 14 l1099 0 -42 -31z"/>
<path d="M21275 676 c-128 -31 -276 -128 -351 -228 -89 -119 -134 -246 -134
-373 l0 -65 640 0 640 0 0 65 c0 127 -45 254 -134 373 -77 104 -234 204 -364
231 -69 14 -233 13 -297 -3z m118 -95 c11 -51 64 -51 74 1 6 29 7 30 50 23
235 -35 433 -233 468 -468 l7 -47 -562 0 -562 0 7 47 c32 215 201 401 415 457
84 22 97 21 103 -13z"/>
</g>
</svg>
