<svg xmlns="http://www.w3.org/2000/svg" width="93.065" height="93.067" viewBox="0 0 93.065 93.067">
  <path id="designer" d="M77.42,85.442l8.149-8.147,2.445,10.592-10.6-2.443ZM49.682,58.813,46.6,55.73l-9.256-9.258-3.085-3.083-19.1-19.1,9.254-9.256,19.1,19.1L46.6,37.215l9.254,9.256,3.083,3.085,24.1,24.1-9.256,9.256ZM19.1,83.222l-7.31,3.131-5.08-5.078L9.85,73.96l24.407-24.4,9.256,9.256Zm-13.21-68.2a2.183,2.183,0,0,1,.014-3.075l6.168-6.17a2.172,2.172,0,0,1,3.073-.014l6.183,6.185L12.075,21.2,5.892,15.023Zm66.611-3.711,9.256,9.254L58.941,43.387l-9.254-9.258L72.507,11.312ZM84.08,4.365c.006,0-.012,0,.006.014L88.7,8.987c.014.014.014.006.014.008l-6.173,6.172-4.628-4.628,6.172-6.173Zm5.13,69.291L62.027,46.472,80.16,28.339l1.7,1.7a2.185,2.185,0,0,1,0,3.093L73.29,41.69a2.183,2.183,0,0,0,3.085,3.083l8.562-8.554a6.548,6.548,0,0,0,.006-9.264l-1.7-1.7,1.6-1.6,3.085-3.085-2.311-2.313,6.173-6.173A4.363,4.363,0,0,0,91.776,5.9L87.169,1.291a4.353,4.353,0,0,0-6.177-.012L74.818,7.453,72.5,5.138,69.42,8.223h0v0L46.6,31.042,18.233,2.68a6.532,6.532,0,0,0-9.243.014l-6.17,6.17a6.542,6.542,0,0,0-.014,9.245l6.183,6.181.589.589,2.5,2.5,19.1,19.1-25,25-4.628,10.8,3.085,3.083L0,89.985l3.085,3.083,4.626-4.626L10.8,91.526,21.6,86.9l25-25L70.692,86l3.085,3.083,15.8,3.649c2.331.537,3.814-.925,3.271-3.273l-3.645-15.8Z" fill="#15d17a" fill-rule="evenodd"/>
</svg>
