<svg xmlns="http://www.w3.org/2000/svg" width="964" height="392.29" viewBox="0 0 964 392.29">
  <g id="hero" transform="translate(-0.075 1014.97)">
    <path id="Path_6" data-name="Path 6" d="M353.429-1014.324a13.5,13.5,0,0,0-4.1,2.978c-3.751,3.79-3.635,2.9-3.635,25.444v19.257H310.584c-40.487,0-37.393-.271-41.3,3.635-4.022,4.06-3.635-6.535-3.635,96.6V-776l-7.541-.077-7.579-.116-1.353-4.022a60.729,60.729,0,0,0-24.323-31.864,61.588,61.588,0,0,0-20.495-8.7c-3.944-.967-4.911-1.044-13.148-1.044s-9.2.077-13.148,1.044a62.27,62.27,0,0,0-27.069,13.689,66.045,66.045,0,0,0-14.308,18.329,76.065,76.065,0,0,0-5.143,14.5c-.967,3.944-1.044,4.911-1.044,13.148s.077,9.2,1.044,13.148A62.27,62.27,0,0,0,145.233-720.9a66.045,66.045,0,0,0,18.329,14.308,76.067,76.067,0,0,0,14.5,5.143c3.944.967,4.911,1.044,13.148,1.044s9.2-.077,13.148-1.044a62.557,62.557,0,0,0,20.843-8.933l3.712-2.514v40.1c0,46.133-.309,42.343,3.635,46.287,3.906,3.867,1.508,3.635,36.195,3.635s32.289.232,36.195-3.635c3.828-3.867,3.635-2.088,3.635-31.825v-25.638H436.259l-.193,1.237c-.116.7-.967,11.253-1.895,23.4l-1.663,22.158h-9.165c-5.53,0-9.59.155-10.247.425a7.61,7.61,0,0,0-3.828,3.712c-.7,1.624-.735,9.049-.077,9.706s114.036.657,114.694,0,.619-8.082-.077-9.706a7.61,7.61,0,0,0-3.828-3.712c-.657-.271-4.718-.425-10.247-.425h-9.165L498.9-659.339c-.928-12.142-1.779-22.7-1.895-23.4l-.193-1.237H553.35v17.517c0,19.489.039,19.683,2.552,22.66l1.392,1.585H545.926c-8.314,0-11.485.116-11.833.464-.309.309-.464,2.2-.464,6.071,0,4.64.155,5.916.735,7.193a10.277,10.277,0,0,0,4.872,4.872c1.508.7,7.347.735,158.738.735s157.23-.039,158.738-.735a10.277,10.277,0,0,0,4.872-4.872c.58-1.276.735-2.552.735-7.193,0-3.867-.155-5.762-.464-6.071-.348-.348-3.519-.464-11.833-.464H838.653l1.392-1.585c2.63-3.132,2.552-1.817,2.552-35.421v-30.278h28.731c33.256,0,31.052.232,34.919-3.635,4.022-4.06,3.635,5.452,3.635-88.4s.387-84.338-3.635-88.4c-4.06-4.022,7.5-3.635-103.866-3.635s-99.806-.387-103.866,3.635c-3.828,3.828-3.635,2.2-3.635,30.858V-834.4H667.038v-61.214c0-70.03.348-63.379-3.635-67.4-4.022-3.983,3.132-3.635-71.074-3.635H527.442V-985.9c0-22.544.116-21.655-3.635-25.444-4.06-4.022,5.336-3.635-87.393-3.6C363.329-1014.943,354.976-1014.866,353.429-1014.324Zm166.511,3.79a10.456,10.456,0,0,1,3.055,3.055c1.16,1.895,1.16,1.933,1.276,8.43l.116,6.5h-175.6v-5.994c0-6.419.271-7.618,2.127-10.093a9.376,9.376,0,0,1,2.978-2.243l2.011-1.005,81.051.077,81.09.116Zm4.331,105.877-.116,84.841-1.16,1.895a10.455,10.455,0,0,1-3.055,3.055l-1.895,1.16H355.092l-1.895-1.16a10.454,10.454,0,0,1-3.055-3.055l-1.16-1.895-.116-84.841-.077-84.8H524.348ZM345.7-953.111v10.4l-25.6.116c-24.864.116-25.676.155-26.914.889a7.948,7.948,0,0,0-2.127,2.127l-.851,1.353-.116,81.09L290.011-776H268.743v-90.1c0-80.046.077-90.293.58-91.531a8.962,8.962,0,0,1,4.524-4.911l2.011-1.005H345.7ZM659.537-962.2a10.456,10.456,0,0,1,3.055,3.055l1.16,1.895.116,61.446.077,61.407H642.29l-.077-51.933-.116-51.894-.851-1.353a7.948,7.948,0,0,0-2.127-2.127c-1.276-.773-2.049-.773-56.457-.889l-55.22-.077v-20.881l65.081.077,65.119.116ZM345.773-879.755l.116,59.86,1.083,2.165a14.28,14.28,0,0,0,6.38,6.264l1.817.851h162.8l2.166-1.083a14.279,14.279,0,0,0,6.264-6.38l.851-1.817.116-59.86.077-59.822H637.3l.928.967.967.928v103.247l-38.167.116-38.205.116-2.166,1.083a14.28,14.28,0,0,0-6.264,6.38l-.851,1.817-.116,41.84-.116,41.879h-244.7l-.116-12.684c-.116-14.308-.155-14.5-3.4-18.02a12.352,12.352,0,0,0-8.817-3.983l-3.171-.232V-937.681l.967-.928.928-.967h50.7Zm556.608-9.358a10.454,10.454,0,0,1,3.055,3.055c1.16,1.895,1.16,1.933,1.276,8.43l.116,6.5H697.974v-5.994c0-6.419.271-7.618,2.127-10.093a9.377,9.377,0,0,1,2.978-2.243l2.011-1.005,97.679.077,97.718.116Zm4.331,95.63L906.6-718.89l-1.16,1.895a10.454,10.454,0,0,1-3.055,3.055l-1.895,1.16H704.277l-1.895-1.16a10.455,10.455,0,0,1-3.055-3.055l-1.16-1.895-.116-74.593-.077-74.555H906.789ZM694.88-823.761v7.541H568.354l-1.121,1.121-1.121,1.16.077,77.532.116,77.532.889.889.889.889,128.653.116c70.765.039,129.233,0,129.929-.116a4.446,4.446,0,0,0,2.049-1.005c.7-.7.735-1.508.735-26.063v-25.328H839.5l-.077,30.471-.116,30.51-1.16,1.895a10.456,10.456,0,0,1-3.055,3.055L833.2-642.4H562.747l-1.895-1.16a10.456,10.456,0,0,1-3.055-3.055l-1.16-1.895-.116-87.432c-.077-59.435,0-87.857.271-88.824a9.355,9.355,0,0,1,4.718-5.53l2.05-1.005H694.88Zm-491.1,6.11a57.23,57.23,0,0,1,13.3,4.8,46.924,46.924,0,0,1,9.706,6.148,58.152,58.152,0,0,1,21.152,33.836c.773,3.48.889,5.066.889,11.755s-.116,8.275-.889,11.755a57.814,57.814,0,0,1-15.12,28.422,58.844,58.844,0,0,1-22.506,14.462c-6.767,2.4-10.557,2.978-19.1,2.978-6.69,0-8.275-.116-11.756-.889A58.461,58.461,0,0,1,149.6-720.939a57.814,57.814,0,0,1-15.12-28.422c-.773-3.48-.889-5.066-.889-11.755s.116-8.275.889-11.755a59.394,59.394,0,0,1,10.479-23.047,66.4,66.4,0,0,1,15.352-14.192,61.86,61.86,0,0,1,18.948-7.618c5.53-1.16,5.491-1.16,13.3-1.005C198.558-818.618,200.376-818.464,203.779-817.651Zm491.179,51.585.116,47.1.851,1.817a14.28,14.28,0,0,0,6.264,6.38l2.165,1.083,61.214.116,61.175.077V-660H569.2V-813.127H694.88Zm-393.887-5.491a10.455,10.455,0,0,1,3.055,3.055c1.044,1.7,1.16,2.281,1.276,5.53l.155,3.6H252.115v-2.088a12.693,12.693,0,0,0-.232-2.707c-.232-.541,1.431-.619,16.976-.619,15.158,0,17.285-.077,17.827-.619a1.817,1.817,0,0,0,.619-.928,1.817,1.817,0,0,0-.619-.928c-.541-.541-2.668-.619-17.749-.619-16.009,0-17.169-.039-17.324-.7a23.655,23.655,0,0,1-.464-2.514l-.232-1.817,24.13.077,24.13.116Zm4.408,69.412v54.137H232.007v-67.9l1.585-1.508a62.834,62.834,0,0,0,17.827-35.421l.464-3.442h53.6ZM553.35-712.587v25.522H308.573v-51.044H553.35ZM493.8-683.817c0,.077.773,10.286,1.74,22.66s1.74,22.815,1.74,23.24c0,.735-.7.735-30.742.735s-30.742,0-30.742-.735c0-.425.773-10.866,1.74-23.24s1.74-22.583,1.74-22.66,12.258-.155,27.262-.155S493.8-683.894,493.8-683.817ZM305.4-638.805c-.116,6.5-.116,6.535-1.276,8.43a10.455,10.455,0,0,1-3.055,3.055l-1.895,1.16H238.31l-1.895-1.16a10.455,10.455,0,0,1-3.055-3.055c-1.16-1.895-1.16-1.933-1.276-8.43l-.116-6.5h73.549Zm370.917,1.7a16.363,16.363,0,0,0,3.248,3.287c3.442,2.359,4.447,2.475,19.064,2.359,12.568-.116,13.148-.155,14.926-.967,2.2-1.044,5.414-3.983,6.071-5.53l.464-1.16H859.226v4.138c0,4.911-.735,6.651-3.287,8.121l-1.547.889H698.051c-154.987,0-156.341,0-157.849-.773-2.707-1.392-3.287-2.63-3.4-7.85l-.155-4.524H675Zm40.139-1.16c-.928,1.469-4.06,3.326-6.3,3.79-1.392.271-6.11.387-13.8.309-11.446-.116-11.755-.155-13.457-1.044-1.779-.889-4.254-3.016-4.254-3.6,0-.155,8.623-.309,19.18-.309H717Zm-197.175,4.718c1.431.773,1.972,2.127,1.972,5.066v2.514H411.82v-2.63c.039-2.823.541-4.176,1.972-4.95C415.223-634.358,517.736-634.32,519.283-633.546Z" transform="translate(-79.99)" fill="#15d17a"/>
    <path id="Path_7" data-name="Path 7" d="M727.156-990.42a4.165,4.165,0,0,0-1.508,1.74,3.343,3.343,0,0,0,1.895,4.254,3.317,3.317,0,0,0,4.292-4.254,4.258,4.258,0,0,0-3.171-2.32A5.483,5.483,0,0,0,727.156-990.42Z" transform="translate(-444.861 -14.701)" fill="#15d17a"/>
    <path id="Path_8" data-name="Path 8" d="M757.156-990.42a4.165,4.165,0,0,0-1.508,1.74,3.343,3.343,0,0,0,1.895,4.254,3.317,3.317,0,0,0,4.292-4.254,4.258,4.258,0,0,0-3.171-2.32A5.483,5.483,0,0,0,757.156-990.42Z" transform="translate(-463.261 -14.701)" fill="#15d17a"/>
    <path id="Path_9" data-name="Path 9" d="M787.156-990.42a4.165,4.165,0,0,0-1.508,1.74,3.343,3.343,0,0,0,1.895,4.254,3.317,3.317,0,0,0,4.292-4.254,4.258,4.258,0,0,0-3.171-2.32A5.483,5.483,0,0,0,787.156-990.42Z" transform="translate(-481.66 -14.701)" fill="#15d17a"/>
    <path id="Path_10" data-name="Path 10" d="M777.619-868.458a1.817,1.817,0,0,0-.619.928,1.817,1.817,0,0,0,.619.928c.889.889,11.408.889,12.3,0a1.817,1.817,0,0,0,.619-.928,1.817,1.817,0,0,0-.619-.928C789.026-869.347,778.508-869.347,777.619-868.458Z" transform="translate(-476.492 -89.448)" fill="#15d17a"/>
    <path id="Path_11" data-name="Path 11" d="M822.619-868.458a1.817,1.817,0,0,0-.619.928,1.817,1.817,0,0,0,.619.928c.889.889,11.407.889,12.3,0a1.818,1.818,0,0,0,.619-.928,1.818,1.818,0,0,0-.619-.928C834.026-869.347,823.508-869.347,822.619-868.458Z" transform="translate(-504.091 -89.448)" fill="#15d17a"/>
    <path id="Path_12" data-name="Path 12" d="M867.619-868.381a1.817,1.817,0,0,0-.619.928,1.817,1.817,0,0,0,.619.928c.5.541,2.011.619,10.6.619s10.093-.077,10.6-.619a1.817,1.817,0,0,0,.619-.928,1.817,1.817,0,0,0-.619-.928c-.5-.541-2.011-.619-10.6-.619S868.121-868.923,867.619-868.381Z" transform="translate(-531.69 -89.524)" fill="#15d17a"/>
    <path id="Path_13" data-name="Path 13" d="M935.619-868.381a1.817,1.817,0,0,0-.619.928,1.817,1.817,0,0,0,.619.928c.5.541,2.436.619,15.236.619s14.733-.077,15.236-.619a1.817,1.817,0,0,0,.619-.928,1.817,1.817,0,0,0-.619-.928c-.5-.541-2.436-.619-15.236-.619S936.121-868.923,935.619-868.381Z" transform="translate(-573.395 -89.524)" fill="#15d17a"/>
    <path id="Path_14" data-name="Path 14" d="M777.619-828.381a1.817,1.817,0,0,0-.619.928,1.817,1.817,0,0,0,.619.928c.5.541,2.243.619,12.916.619s12.413-.077,12.916-.619a1.817,1.817,0,0,0,.619-.928,1.817,1.817,0,0,0-.619-.928c-.5-.541-2.243-.619-12.916-.619S778.121-828.923,777.619-828.381Z" transform="translate(-476.492 -114.056)" fill="#15d17a"/>
    <path id="Path_15" data-name="Path 15" d="M857.619-828.381a1.817,1.817,0,0,0-.619.928,1.817,1.817,0,0,0,.619.928c.541.541,3.094.619,22.583.619s22.042-.077,22.583-.619a1.817,1.817,0,0,0,.619-.928,1.817,1.817,0,0,0-.619-.928c-.541-.541-3.094-.619-22.583-.619S858.16-828.923,857.619-828.381Z" transform="translate(-525.557 -114.056)" fill="#15d17a"/>
    <path id="Path_16" data-name="Path 16" d="M987.619-828.381a1.817,1.817,0,0,0-.619.928,1.817,1.817,0,0,0,.619.928c.5.541,1.895.619,9.049.619s8.546-.077,9.049-.619a1.817,1.817,0,0,0,.619-.928,1.817,1.817,0,0,0-.619-.928c-.5-.541-1.895-.619-9.049-.619S988.121-828.923,987.619-828.381Z" transform="translate(-605.287 -114.056)" fill="#15d17a"/>
    <path id="Path_17" data-name="Path 17" d="M777.619-788.381a1.817,1.817,0,0,0-.619.928,1.817,1.817,0,0,0,.619.928c.5.541,1.895.619,9.049.619s8.546-.077,9.049-.619a1.817,1.817,0,0,0,.619-.928,1.817,1.817,0,0,0-.619-.928c-.5-.541-1.895-.619-9.049-.619S778.121-788.923,777.619-788.381Z" transform="translate(-476.492 -138.589)" fill="#15d17a"/>
    <path id="Path_18" data-name="Path 18" d="M837.619-788.381a1.817,1.817,0,0,0-.619.928,1.817,1.817,0,0,0,.619.928c.5.541,1.895.619,9.049.619s8.546-.077,9.049-.619a1.817,1.817,0,0,0,.619-.928,1.817,1.817,0,0,0-.619-.928c-.5-.541-1.895-.619-9.049-.619S838.121-788.923,837.619-788.381Z" transform="translate(-513.291 -138.589)" fill="#15d17a"/>
    <path id="Path_19" data-name="Path 19" d="M897.619-788.458a1.817,1.817,0,0,0-.619.928,1.817,1.817,0,0,0,.619.928c.889.889,9.474.889,10.363,0a1.817,1.817,0,0,0,.619-.928,1.817,1.817,0,0,0-.619-.928C907.093-789.347,898.508-789.347,897.619-788.458Z" transform="translate(-550.089 -138.512)" fill="#15d17a"/>
    <path id="Path_20" data-name="Path 20" d="M777.619-748.381a1.817,1.817,0,0,0-.619.928,1.817,1.817,0,0,0,.619.928c.541.541,2.746.619,18.716.619s18.175-.077,18.716-.619a1.817,1.817,0,0,0,.619-.928,1.817,1.817,0,0,0-.619-.928c-.541-.541-2.746-.619-18.716-.619S778.16-748.923,777.619-748.381Z" transform="translate(-476.492 -163.121)" fill="#15d17a"/>
    <path id="Path_21" data-name="Path 21" d="M887.619-748.381a1.817,1.817,0,0,0-.619.928,1.817,1.817,0,0,0,.619.928c.5.541,2.243.619,12.916.619s12.413-.077,12.916-.619a1.817,1.817,0,0,0,.619-.928,1.817,1.817,0,0,0-.619-.928c-.5-.541-2.243-.619-12.916-.619S888.121-748.923,887.619-748.381Z" transform="translate(-543.956 -163.121)" fill="#15d17a"/>
    <path id="Path_22" data-name="Path 22" d="M777.619-708.381a1.817,1.817,0,0,0-.619.928,1.817,1.817,0,0,0,.619.928c.541.541,2.746.619,18.716.619s18.175-.077,18.716-.619a1.817,1.817,0,0,0,.619-.928,1.817,1.817,0,0,0-.619-.928c-.541-.541-2.746-.619-18.716-.619S778.16-708.923,777.619-708.381Z" transform="translate(-476.492 -187.653)" fill="#15d17a"/>
    <path id="Path_23" data-name="Path 23" d="M887.619-708.381a1.817,1.817,0,0,0-.619.928,1.817,1.817,0,0,0,.619.928c.541.541,3.287.619,24.516.619s23.975-.077,24.516-.619a1.817,1.817,0,0,0,.619-.928,1.817,1.817,0,0,0-.619-.928c-.541-.541-3.287-.619-24.516-.619S888.16-708.923,887.619-708.381Z" transform="translate(-543.956 -187.653)" fill="#15d17a"/>
    <path id="Path_24" data-name="Path 24" d="M777.619-668.381a1.817,1.817,0,0,0-.619.928,1.817,1.817,0,0,0,.619.928c.5.541,2.243.619,12.916.619s12.413-.077,12.916-.619a1.817,1.817,0,0,0,.619-.928,1.817,1.817,0,0,0-.619-.928c-.5-.541-2.243-.619-12.916-.619S778.121-668.923,777.619-668.381Z" transform="translate(-476.492 -212.185)" fill="#15d17a"/>
    <path id="Path_25" data-name="Path 25" d="M857.619-668.381a1.817,1.817,0,0,0-.619.928,1.817,1.817,0,0,0,.619.928c.5.541,2.243.619,12.916.619s12.413-.077,12.916-.619a1.817,1.817,0,0,0,.619-.928,1.817,1.817,0,0,0-.619-.928c-.5-.541-2.243-.619-12.916-.619S858.121-668.923,857.619-668.381Z" transform="translate(-525.557 -212.185)" fill="#15d17a"/>
    <path id="Path_26" data-name="Path 26" d="M937.619-668.381a1.817,1.817,0,0,0-.619.928,1.817,1.817,0,0,0,.619.928c.5.5,1.7.619,7.115.619s6.612-.116,7.115-.619a1.817,1.817,0,0,0,.619-.928,1.817,1.817,0,0,0-.619-.928c-.5-.5-1.7-.619-7.115-.619S938.121-668.884,937.619-668.381Z" transform="translate(-574.621 -212.185)" fill="#15d17a"/>
    <path id="Path_27" data-name="Path 27" d="M777.619-628.381a1.817,1.817,0,0,0-.619.928,1.817,1.817,0,0,0,.619.928c.541.541,3.287.619,24.516.619s23.975-.077,24.516-.619a1.817,1.817,0,0,0,.619-.928,1.817,1.817,0,0,0-.619-.928c-.541-.541-3.287-.619-24.516-.619S778.16-628.923,777.619-628.381Z" transform="translate(-476.492 -236.718)" fill="#15d17a"/>
    <path id="Path_28" data-name="Path 28" d="M777.619-588.381a1.817,1.817,0,0,0-.619.928,1.817,1.817,0,0,0,.619.928c.5.541,2.049.619,10.982.619s10.479-.077,10.982-.619a1.817,1.817,0,0,0,.619-.928,1.817,1.817,0,0,0-.619-.928c-.5-.541-2.05-.619-10.982-.619S778.121-588.923,777.619-588.381Z" transform="translate(-476.492 -261.25)" fill="#15d17a"/>
    <path id="Path_29" data-name="Path 29" d="M1630.156-676.42a4.165,4.165,0,0,0-1.508,1.74,3.343,3.343,0,0,0,1.895,4.254,3.317,3.317,0,0,0,4.292-4.254,4.258,4.258,0,0,0-3.171-2.32A5.481,5.481,0,0,0,1630.156-676.42Z" transform="translate(-998.676 -207.279)" fill="#15d17a"/>
    <path id="Path_30" data-name="Path 30" d="M1660.156-676.42a4.165,4.165,0,0,0-1.508,1.74,3.343,3.343,0,0,0,1.895,4.254,3.317,3.317,0,0,0,4.292-4.254,4.258,4.258,0,0,0-3.171-2.32A5.481,5.481,0,0,0,1660.156-676.42Z" transform="translate(-1017.076 -207.279)" fill="#15d17a"/>
    <path id="Path_31" data-name="Path 31" d="M1690.156-676.42a4.166,4.166,0,0,0-1.508,1.74,3.343,3.343,0,0,0,1.895,4.254,3.317,3.317,0,0,0,4.292-4.254,4.258,4.258,0,0,0-3.171-2.32A5.483,5.483,0,0,0,1690.156-676.42Z" transform="translate(-1035.474 -207.279)" fill="#15d17a"/>
    <path id="Path_32" data-name="Path 32" d="M1690.7-562.308c-2.514,1.237-2.707,2.166-2.707,12.838,0,14.076-.542,13.534,13.534,13.534s13.534.541,13.534-13.534S1715.605-563,1701.53-563C1693.293-563,1691.863-562.927,1690.7-562.308Zm20.8,2.862c.657.657.657,19.3,0,19.953s-19.3.657-19.953,0c-.348-.348-.464-3.094-.464-9.977s.116-9.629.464-9.977,3.094-.464,9.977-.464S1711.158-559.795,1711.507-559.447Z" transform="translate(-1035.209 -277.191)" fill="#15d17a"/>
    <path id="Path_33" data-name="Path 33" d="M1856.633-553.661a7.06,7.06,0,0,0-.271,2.475v2.2l-2.4.5c-15,2.939-27.842,15.584-31.09,30.626l-.657,2.978-2.359.116-2.359.116v11.988l2.4.116c2.281.116,2.436.193,2.668,1.16a42.544,42.544,0,0,0,13.418,22.931,41.731,41.731,0,0,0,17.324,8.7l2.63.619.116,2.359.116,2.4h11.988l.116-2.4.116-2.359,2.63-.619a40.957,40.957,0,0,0,26.6-20.185l1.663-3.055v17.053l-1.16.851a4.407,4.407,0,0,0-1.431,5.182,4.449,4.449,0,0,0,8.275,0,4.407,4.407,0,0,0-1.431-5.182l-1.16-.851v-26.489l2.049-.116,2.011-.116v-11.988l-2.011-.116-2.049-.116v-25.715l1.16-.851a4.407,4.407,0,0,0,1.431-5.182,4.449,4.449,0,0,0-8.275,0,4.408,4.408,0,0,0,1.431,5.182l1.16.851v15.506l-1.585-2.9a41.2,41.2,0,0,0-27.881-20.65c-.967-.232-1.044-.387-1.16-2.668l-.116-2.4-5.839-.116A45.822,45.822,0,0,0,1856.633-553.661Zm9.01,5.955v3.094h-6.187V-550.8h6.187Zm-9.2,4.138.116,1.856h11.987l.116-1.856c.077-1.276.271-1.817.657-1.817,1.431,0,8.043,2.475,10.75,4.022a37.462,37.462,0,0,1,14.424,14.424c1.74,3.016,4.022,9.358,4.022,11.137,0,.851-.155.928-2.011,1.044l-2.05.116v11.988l2.05.116c1.431.077,2.011.271,2.011.657a30.251,30.251,0,0,1-1.16,4.138,37.36,37.36,0,0,1-23.9,23.9c-4.911,1.585-5.027,1.585-5.182-.7l-.116-1.817h-11.988l-.116,1.817c-.155,2.281-.271,2.281-5.182.7a37.361,37.361,0,0,1-23.9-23.9,30.281,30.281,0,0,1-1.16-4.138c0-.387.541-.58,1.856-.657l1.818-.116v-11.988l-1.818-.116c-1.663-.116-1.856-.193-1.856-1.044,0-1.779,2.282-8.121,4.022-11.137A37.925,37.925,0,0,1,1844.3-541.4c2.862-1.624,9.358-3.983,10.982-3.983C1856.247-545.386,1856.324-545.27,1856.44-543.569Zm-29.853,34.919v3.094H1820.4v-6.187h6.187Zm76.952,0v3.094h-6.187v-6.187h6.187Zm-38.283,38.283v3.094h-6.187v-6.187h6.187Z" transform="translate(-1114.637 -282.822)" fill="#15d17a"/>
    <path id="Path_34" data-name="Path 34" d="M1690.7-472.308c-2.514,1.237-2.707,2.165-2.707,12.838,0,14.076-.542,13.534,13.534,13.534s13.534.541,13.534-13.534S1715.605-473,1701.53-473C1693.293-473,1691.863-472.927,1690.7-472.308Zm20.8,2.862c.657.657.657,19.3,0,19.953s-19.3.657-19.953,0c-.348-.348-.464-3.094-.464-9.977s.116-9.629.464-9.977C1692.21-470.1,1710.849-470.1,1711.507-469.447Z" transform="translate(-1035.209 -332.389)" fill="#15d17a"/>
    <path id="Path_35" data-name="Path 35" d="M1690.7-382.308c-2.514,1.237-2.707,2.166-2.707,12.838,0,14.076-.542,13.534,13.534,13.534s13.534.541,13.534-13.534S1715.605-383,1701.53-383C1693.293-383,1691.863-382.927,1690.7-382.308Zm20.8,2.862c.657.657.657,19.3,0,19.953s-19.3.657-19.953,0c-.348-.348-.464-3.094-.464-9.977s.116-9.629.464-9.977C1692.21-380.1,1710.849-380.1,1711.507-379.447Z" transform="translate(-1035.209 -387.586)" fill="#15d17a"/>
    <path id="Path_36" data-name="Path 36" d="M279.266-421.441c-.232.271-3.906,11.059-8.2,23.975-5.22,15.622-7.734,23.743-7.579,24.284.193.657.541.773,1.469.7l1.237-.116,7.811-23.2c5.143-15.274,7.773-23.666,7.734-24.555-.077-1.16-.232-1.353-1.083-1.469A1.725,1.725,0,0,0,279.266-421.441Z" transform="translate(-161.549 -363.767)" fill="#15d17a"/>
    <path id="Path_37" data-name="Path 37" d="M208.44-393.146c-4.8,4.254-8.855,8-8.971,8.353a1.585,1.585,0,0,0,.039,1.121c.348.58,16.086,14.656,17.4,15.545a1.292,1.292,0,0,0,1.624.116c1.817-.967,1.121-1.895-7.154-9.242-7.657-6.806-7.927-7.115-7.27-7.773.425-.348,3.906-3.48,7.811-6.96a84.244,84.244,0,0,0,7.309-6.883,1.583,1.583,0,0,0-1.315-1.933C217.411-400.88,214.473-398.521,208.44-393.146Z" transform="translate(-122.239 -376.671)" fill="#15d17a"/>
    <path id="Path_38" data-name="Path 38" d="M324.378-400.42a1.76,1.76,0,0,0-.309,1.237c.116.58,5.3,5.414,13.612,12.722l2.243,1.972-7.966,7.115c-8.237,7.347-8.971,8.314-7.154,9.242a1.292,1.292,0,0,0,1.624-.116c1.237-.812,17.053-14.965,17.4-15.545a1.584,1.584,0,0,0,.039-1.121C343.48-385.88,326.272-401,325.538-401A1.768,1.768,0,0,0,324.378-400.42Z" transform="translate(-198.656 -376.551)" fill="#15d17a"/>
    <path id="Path_39" data-name="Path 39" d="M480.619-232.381a1.817,1.817,0,0,0-.619.928,1.817,1.817,0,0,0,.619.928c.5.541,2.243.619,12.916.619s12.413-.077,12.916-.619a1.817,1.817,0,0,0,.619-.928,1.817,1.817,0,0,0-.619-.928c-.5-.541-2.243-.619-12.916-.619S481.121-232.923,480.619-232.381Z" transform="translate(-294.341 -479.587)" fill="#15d17a"/>
    <path id="Path_40" data-name="Path 40" d="M431.57-225.24a7.8,7.8,0,0,0-4.834,5.066c-1.74,7.038,6.845,11.949,11.949,6.844C443.906-218.55,438.763-227.173,431.57-225.24ZM436.6-221.3a3.385,3.385,0,0,1,1.315,2.939,3.385,3.385,0,0,1-1.315,2.939,3.385,3.385,0,0,1-2.939,1.315,3.385,3.385,0,0,1-2.939-1.315,3.385,3.385,0,0,1-1.315-2.939,3.385,3.385,0,0,1,1.315-2.939,3.385,3.385,0,0,1,2.939-1.315A3.385,3.385,0,0,1,436.6-221.3Z" transform="translate(-261.534 -484.176)" fill="#15d17a"/>
    <path id="Path_41" data-name="Path 41" d="M480.619-210.5a1.817,1.817,0,0,0-.619.928,1.817,1.817,0,0,0,.619.928c.889.928,17.208.928,18.1,0a1.817,1.817,0,0,0,.619-.928,1.817,1.817,0,0,0-.619-.928C497.827-211.432,481.508-211.432,480.619-210.5Z" transform="translate(-294.341 -492.957)" fill="#15d17a"/>
    <path id="Path_42" data-name="Path 42" d="M480.619-188.458a1.817,1.817,0,0,0-.619.928,1.817,1.817,0,0,0,.619.928c.889.889,9.474.889,10.363,0a1.817,1.817,0,0,0,.619-.928,1.817,1.817,0,0,0-.619-.928C490.093-189.347,481.508-189.347,480.619-188.458Z" transform="translate(-294.341 -506.495)" fill="#15d17a"/>
    <path id="Path_43" data-name="Path 43" d="M983.889-249.089a8.44,8.44,0,0,0-5.336,12.026c2.707,5.607,11.369,6.148,14.617.889C997.307-242.863,991.39-251.1,983.889-249.089Zm5.027,3.326a7.112,7.112,0,0,1,2.011,2.011,5.687,5.687,0,0,1-2.011,7.657,5.687,5.687,0,0,1-7.657-2.011C978.359-242.9,984.121-248.663,988.916-245.763Z" transform="translate(-599.546 -469.53)" fill="#15d17a"/>
    <path id="Path_44" data-name="Path 44" d="M480.572-45.627a5.3,5.3,0,0,0-3.055,3.248,4.925,4.925,0,0,0,1.74,4.37,5.444,5.444,0,0,0,2.591.619,3.7,3.7,0,0,0,3.944-3.944,3.915,3.915,0,0,0-2.552-4.022A2.893,2.893,0,0,0,480.572-45.627Z" transform="translate(-292.786 -594.377)" fill="#15d17a"/>
    <path id="Path_45" data-name="Path 45" d="M2286.52-214.384a11.8,11.8,0,0,0-4.447,3.944l-.851,1.353h-13.3c-12.838,0-13.341.039-14.076.773-.773.773-.773,1.16-.7,35.731l.116,34.957,1.16,1.663a14.33,14.33,0,0,0,2.861,2.862l1.663,1.16h60.17l1.7-1.16a14.155,14.155,0,0,0,2.784-2.9c1.044-1.547,1.2-2.088,1.392-5.762l.193-4.06,1.934-.425c7-1.547,13.418-6.922,16.628-13.921a21.011,21.011,0,0,0,2.127-10.247,21.011,21.011,0,0,0-2.127-10.247c-3.209-7-9.628-12.374-16.628-13.921l-1.934-.425-.116-6.148c-.077-5.684-.155-6.226-.928-7.038l-.812-.889h-24.091l-1.238-1.7a12.221,12.221,0,0,0-2.823-2.823c-1.392-.928-2.127-1.083-4.563-1.2A11.877,11.877,0,0,0,2286.52-214.384Zm9.474,17.285v8.894h-2.978c-3.635,0-5.414.735-6.381,2.707-.619,1.2-.7,2.591-.7,11.214,0,14.269-.271,13.921,11.6,13.921s11.6.348,11.6-13.921c0-8.623-.077-10.015-.7-11.214-.967-1.972-2.707-2.707-6.535-2.707H2298.7v-17.788h23.2v66.782l-.889,1.315a9.6,9.6,0,0,1-2.165,2.165l-1.315.889h-57l-1.315-.889a9.591,9.591,0,0,1-2.166-2.165l-.889-1.315v-66.782h39.83Zm32.56,6.3a21.648,21.648,0,0,1,14.23,20.379,21.648,21.648,0,0,1-14.23,20.379c-3.674,1.353-3.558,1.431-3.558-2.514v-3.442l1.508-.5a14.453,14.453,0,0,0,3.364-1.895,14.836,14.836,0,0,0,0-24.052,14.453,14.453,0,0,0-3.364-1.895l-1.508-.5v-3.442C2325-192.226,2324.88-192.149,2328.553-190.8Zm-22.969,6.148c.348.348.464,3.171.464,10.363s-.116,10.015-.464,10.363c-.657.657-15.429.657-16.087,0-.348-.348-.464-3.171-.464-10.363s.116-10.015.464-10.363C2290.155-185.3,2304.927-185.3,2305.584-184.647Zm21.577,3.751a12.42,12.42,0,0,1,5.182,14.849c-1.044,2.823-5.066,6.844-6.844,6.844-.387,0-.5-2.514-.5-11.214s.116-11.214.5-11.214A5.787,5.787,0,0,1,2327.161-180.9Z" transform="translate(-1381.802 -490.74)" fill="#15d17a"/>
    <path id="Path_46" data-name="Path 46" d="M18.221-126.381A25.23,25.23,0,0,0,.626-108.632a32.873,32.873,0,0,0,0,11.988A25.2,25.2,0,0,0,18.414-78.857c1.972.5,8.855.58,51.74.58h49.458l1.121-1.121c1.083-1.083,1.121-1.276,1.121-4.64,0-3.326-.039-3.558-1.2-4.834a3.905,3.905,0,0,0-2.978-1.585,31.153,31.153,0,0,1-8.894-2.282c-7.811-3.944-7.811-15.854,0-19.8a31.153,31.153,0,0,1,8.894-2.281,3.905,3.905,0,0,0,2.978-1.585c1.16-1.276,1.2-1.508,1.2-4.834,0-3.364-.039-3.558-1.121-4.64L119.612-127l-49.652.039C28-126.961,20.038-126.845,18.221-126.381Zm100.463,5.259-.116,2.823-48.917.193c-54.64.232-50.077-.039-54.447,2.978a14.529,14.529,0,0,0-6.38,12.49,14.529,14.529,0,0,0,6.38,12.49c4.37,3.016-.193,2.746,54.447,2.978l48.917.193.116,2.823.116,2.784-49.613-.077-49.613-.116-2.707-1.083A22.247,22.247,0,0,1,4.416-95.291c-.967-2.552-1.083-3.442-1.083-7.347s.116-4.8,1.083-7.347a22.248,22.248,0,0,1,11.1-12.065c4.292-1.856,2.591-1.817,54.447-1.817l48.84-.039Zm-13.8,7.309a10.425,10.425,0,0,0-2.668,2.862l-1.044,1.7-39.52.039c-35.383,0-39.559.077-40.1.619a1.817,1.817,0,0,0-.619.928,1.817,1.817,0,0,0,.619.928c.541.541,4.64.619,39.52.619h38.94l-.116,3.287-.116,3.287H60.95c-34.764,0-38.863.077-39.4.619-.773.735-.773,1.121,0,1.856.541.541,4.679.619,39.946.619h39.365l1.2,1.895a13.817,13.817,0,0,0,2.823,3.132l1.624,1.16-43.078-.077-43.078-.116-1.663-.889a14.174,14.174,0,0,1-5.723-5.568c-1.005-1.856-1.121-2.4-1.121-5.723,0-3.055.155-3.944.889-5.3a13.124,13.124,0,0,1,7.386-6.535c1.121-.387,10.17-.5,43.89-.541h42.5Z" transform="translate(0 -544.597)" fill="#15d17a"/>
    <path id="Path_47" data-name="Path 47" d="M2097.755-68.385a26.66,26.66,0,0,0-13.573,8.817A24,24,0,0,0,2079-45.145v2.514h49.5v-2.514a24.005,24.005,0,0,0-5.182-14.424,26.323,26.323,0,0,0-14.076-8.933A38.053,38.053,0,0,0,2097.755-68.385Zm4.563,3.674c.425,1.972,2.475,1.972,2.862-.039.232-1.121.271-1.16,1.933-.889a22.014,22.014,0,0,1,18.1,18.1l.271,1.817h-43.464l.271-1.817a22.08,22.08,0,0,1,16.048-17.672C2101.583-66.065,2102.085-66.026,2102.318-64.711Z" transform="translate(-1275.016 -580.242)" fill="#15d17a"/>
  </g>
</svg>
