<svg xmlns="http://www.w3.org/2000/svg" width="128.036" height="102.428" viewBox="0 0 128.036 102.428">
  <path id="laptop-code-solid" d="M51.02,52.345a3.2,3.2,0,0,0,4.527,0l2.263-2.263a3.2,3.2,0,0,0,0-4.527l-7.146-7.144,7.144-7.146a3.2,3.2,0,0,0,0-4.527l-2.263-2.263a3.2,3.2,0,0,0-4.527,0L39.347,36.146a3.2,3.2,0,0,0,0,4.527Zm19.207-2.261,2.263,2.263a3.2,3.2,0,0,0,4.527,0L88.689,40.675a3.2,3.2,0,0,0,0-4.527L77.017,24.477a3.2,3.2,0,0,0-4.527,0l-2.263,2.263a3.2,3.2,0,0,0,0,4.527l7.144,7.144-7.144,7.146a3.2,3.2,0,0,0,0,4.527Zm54.607,33.139H76.329a6.307,6.307,0,0,1-6.55,6.4H57.616a6.794,6.794,0,0,1-6.556-6.4H3.2a3.21,3.21,0,0,0-3.2,3.2v3.2a12.841,12.841,0,0,0,12.8,12.8H115.232a12.841,12.841,0,0,0,12.8-12.8v-3.2A3.21,3.21,0,0,0,124.835,83.223Zm-9.6-73.62a9.631,9.631,0,0,0-9.6-9.6H22.406a9.631,9.631,0,0,0-9.6,9.6V76.821H115.232Zm-12.8,54.415H25.607V12.8h76.821Z" fill="#15d17a"/>
</svg>
