<svg xmlns="http://www.w3.org/2000/svg" width="69.919" height="68.172" viewBox="0 0 69.919 68.172">
  <path id="github-brands" d="M23.386,62.892c0,.282-.324.507-.733.507-.465.042-.789-.183-.789-.507,0-.282.324-.507.733-.507C23.02,62.342,23.386,62.568,23.386,62.892ZM19,62.258c-.1.282.183.606.606.691a.661.661,0,0,0,.874-.282c.085-.282-.183-.606-.606-.733A.724.724,0,0,0,19,62.258Zm6.231-.24c-.409.1-.691.367-.648.691.042.282.409.465.832.367s.691-.367.648-.648S25.642,61.976,25.233,62.018ZM34.508,8C14.956,8,0,22.844,0,42.4A35.341,35.341,0,0,0,23.894,76.115c1.8.324,2.439-.789,2.439-1.706,0-.874-.042-5.7-.042-8.655,0,0-9.868,2.114-11.94-4.2,0,0-1.607-4.1-3.919-5.159,0,0-3.228-2.213.226-2.171A7.441,7.441,0,0,1,16.1,57.86c3.087,5.441,8.261,3.877,10.276,2.946a7.835,7.835,0,0,1,2.255-4.751c-7.88-.874-15.83-2.016-15.83-15.577a10.684,10.684,0,0,1,3.327-8.3,13.319,13.319,0,0,1,.367-9.572c2.946-.916,9.727,3.806,9.727,3.806a33.3,33.3,0,0,1,17.705,0s6.78-4.736,9.727-3.806a13.312,13.312,0,0,1,.367,9.572c2.255,2.5,3.637,4.44,3.637,8.3,0,13.6-8.3,14.689-16.183,15.577,1.3,1.114,2.4,3.228,2.4,6.541,0,4.751-.042,10.629-.042,11.785,0,.916.648,2.03,2.439,1.706,14.1-4.68,23.654-18.058,23.654-33.691C69.919,22.844,54.06,8,34.508,8ZM13.7,56.619c-.183.141-.141.465.1.733.226.226.55.324.733.141.183-.141.141-.465-.1-.733C14.209,56.534,13.885,56.436,13.7,56.619Zm-1.522-1.142c-.1.183.042.409.324.55a.419.419,0,0,0,.606-.1c.1-.183-.042-.409-.324-.55C12.5,55.294,12.278,55.336,12.179,55.477ZM16.747,60.5c-.226.183-.141.606.183.874.324.324.733.367.916.141.183-.183.1-.606-.183-.874C17.353,60.312,16.93,60.27,16.747,60.5ZM15.14,58.423c-.226.141-.226.507,0,.832s.606.465.789.324a.643.643,0,0,0,0-.874c-.2-.324-.564-.465-.789-.282Z" transform="translate(0 -8)" fill="#f6f6f6"/>
</svg>
