<svg xmlns="http://www.w3.org/2000/svg" width="60.687" height="60.687" viewBox="0 0 60.687 60.687">
  <path id="linkedin-brands" d="M56.352,32H4.321A4.353,4.353,0,0,0,0,36.375V88.311a4.353,4.353,0,0,0,4.321,4.375H56.352a4.365,4.365,0,0,0,4.335-4.375V36.375A4.365,4.365,0,0,0,56.352,32ZM18.341,84.017H9.347V55.055h9.008V84.017ZM13.844,51.1a5.215,5.215,0,1,1,5.215-5.215A5.217,5.217,0,0,1,13.844,51.1ZM52.058,84.017H43.063V69.929c0-3.359-.068-7.681-4.673-7.681-4.687,0-5.4,3.657-5.4,7.437V84.017H23.99V55.055h8.629v3.955h.122a9.474,9.474,0,0,1,8.52-4.673c9.1,0,10.8,6,10.8,13.8Z" transform="translate(0 -32)" fill="#f6f6f6"/>
</svg>
